<svg xmlns="http://www.w3.org/2000/svg" aria-hidden="true" aria-labelledby="svgcid-wvyzqxr0quu2" data-bbox="0 0 491.76 153.828" data-type="color" viewBox="0 0 491.76 153.828"><path fill="#282828" d="M0 152.84V97.36h36.8v9.77H11.92v12.72h22.26v9.78H11.92v23.21ZM80 152.84a8.86 8.86 0 0 1-5.84-1.84 7.79 7.79 0 0 1-2.62-5.37h-.4a10 10 0 0 1-4.41 6.12 14.9 14.9 0 0 1-8.07 2.07q-6 0-9.58-3.22t-3.62-9q0-6.44 4.69-9.54t13.76-3.1h6.59v-2.07a7.93 7.93 0 0 0-1.71-5.52c-1.14-1.24-3.06-1.87-5.76-1.87a11.37 11.37 0 0 0-6 1.43 14 14 0 0 0-4 3.74l-6.44-5.72a15.35 15.35 0 0 1 6.48-5.77 24.73 24.73 0 0 1 11.32-2.26q8.43 0 13.16 3.85t4.73 11.65v18h4.52v8.51Zm-16.93-6.76a8.87 8.87 0 0 0 5.25-1.51 5 5 0 0 0 2.14-4.37v-4.93h-6.24q-7.23 0-7.23 4.85v1.59a3.68 3.68 0 0 0 1.67 3.29 7.9 7.9 0 0 0 4.45 1.08ZM93.71 94h11.77v25.35h.52a15.63 15.63 0 0 1 4.37-6.1 11.76 11.76 0 0 1 7.79-2.4 15 15 0 0 1 6.24 1.27 12.75 12.75 0 0 1 4.85 3.89 19.68 19.68 0 0 1 3.18 6.68 40.81 40.81 0 0 1 0 19.24 19.53 19.53 0 0 1-3.18 6.67 12.68 12.68 0 0 1-4.85 3.9 15 15 0 0 1-6.24 1.27 11.86 11.86 0 0 1-7.79-2.37 15.1 15.1 0 0 1-4.37-6.13h-.55v7.55H93.71Zm19.4 50.55a7.75 7.75 0 0 0 6.12-2.41 9.67 9.67 0 0 0 2.14-6.67v-6.32a9.67 9.67 0 0 0-2.14-6.67 7.75 7.75 0 0 0-6.12-2.41 9.5 9.5 0 0 0-5.37 1.5 5.27 5.27 0 0 0-2.26 4.74v12a5.27 5.27 0 0 0 2.26 4.74 9.5 9.5 0 0 0 5.37 1.52ZM142.59 143.62h9.46V121h-9.46v-9.22h21.23v11.61h.55a23.65 23.65 0 0 1 1.55-4.34 14.25 14.25 0 0 1 2.55-3.73 11.09 11.09 0 0 1 3.77-2.58 13.19 13.19 0 0 1 5.25-1h3.89v10.81h-8.74q-4.37 0-6.6 2.58a9.28 9.28 0 0 0-2.22 6.29v12.12h13.51v9.22h-34.74ZM191.88 143.62h13V121h-13v-9.22h24.79v31.8h12.09v9.22h-36.88Zm18.91-37c-2.65 0-4.49-.55-5.52-1.63a5.53 5.53 0 0 1-1.55-3.94v-2.3a5.49 5.49 0 0 1 1.55-4q1.54-1.59 5.52-1.59t5.53 1.59a5.49 5.49 0 0 1 1.55 4V101a5.53 5.53 0 0 1-1.55 3.94c-1.04 1.06-2.88 1.64-5.53 1.64ZM257.61 153.79a24.27 24.27 0 0 1-8.7-1.47 17.53 17.53 0 0 1-6.52-4.25 18.79 18.79 0 0 1-4.09-6.76 28.72 28.72 0 0 1 0-18 18.79 18.79 0 0 1 4.09-6.76 17.53 17.53 0 0 1 6.52-4.25 24 24 0 0 1 8.62-1.47q6.75 0 10.85 2.74a17.7 17.7 0 0 1 6.24 7.27l-9.06 4.93a12 12 0 0 0-2.9-4 7.47 7.47 0 0 0-5.13-1.59 8.13 8.13 0 0 0-6.24 2.34 9 9 0 0 0-2.19 6.4v6.68a9 9 0 0 0 2.19 6.4q2.19 2.34 6.4 2.34a8.26 8.26 0 0 0 5.37-1.59 13.44 13.44 0 0 0 3.29-4.13l8.91 5.08a18 18 0 0 1-6.48 7.28q-4.26 2.81-11.17 2.81ZM318.5 152.84a8.91 8.91 0 0 1-5.89-1.87 7.83 7.83 0 0 1-2.61-5.37h-.4a10 10 0 0 1-4.41 6.12 14.9 14.9 0 0 1-8.07 2.07q-6 0-9.57-3.22t-3.62-9q0-6.44 4.69-9.54t13.75-3.1H309v-2.07a7.93 7.93 0 0 0-1.71-5.52c-1.14-1.24-3.06-1.87-5.77-1.87a11.37 11.37 0 0 0-6 1.43 14.09 14.09 0 0 0-4 3.74L285 118.9a15.41 15.41 0 0 1 6.48-5.77 24.77 24.77 0 0 1 11.33-2.26q8.42 0 13.15 3.85t4.73 11.65v18h4.53v8.51Zm-16.94-6.76a8.87 8.87 0 0 0 5.25-1.51 5 5 0 0 0 2.19-4.37v-4.93h-6.28q-7.24 0-7.24 4.85v1.59a3.68 3.68 0 0 0 1.67 3.26 8 8 0 0 0 4.41 1.11ZM353.92 0a29.29 29.29 0 1 0 29.29 29.29A29.29 29.29 0 0 0 353.92 0Zm0 50.59a21.3 21.3 0 1 1 21.3-21.3 21.29 21.29 0 0 1-21.3 21.3Z" data-color="1"/><path fill="#00a39c" d="M353.92 13.31a16 16 0 0 0-16 16 15.67 15.67 0 0 0 .8 5L286.09 99a36.26 36.26 0 0 1 52.66 20.91l20.77-75.66a16 16 0 0 0-5.6-30.93Zm0 25a9 9 0 1 1 9-9 9 9 0 0 1-9 8.99Z" data-color="2"/><path fill="#282828" d="M456.19 18.76A20.28 20.28 0 1 0 476.47 39a20.28 20.28 0 0 0-20.28-20.24Zm0 33.8A13.52 13.52 0 1 1 469.71 39a13.53 13.53 0 0 1-13.52 13.56ZM404.47 153.79 401 140.44h-15.21l-3.42 13.35h-12.08l15-55.48h16.86l15 55.48Zm-10.73-44h-.64l-5.4 21h11.45Z" data-color="1"/><path fill="#00a39c" d="m428.92 74.19 16-15.66a22.63 22.63 0 0 1-7.85-7.62l-15.29 23 24.3 24-2-6.4ZM356.08 148.01a5.28 5.28 0 1 1-10.56 0 5.28 5.28 0 0 1 10.56 0zM465 37.09a9 9 0 0 0-13.22-5.91L383.66 13.8a33.51 33.51 0 0 1-5 38.1v.1l71.56-6.19A9 9 0 0 0 465 37.09Zm-7.83 6.35a4.51 4.51 0 1 1 3.43-5.37 4.51 4.51 0 0 1-3.44 5.37Z" data-color="2"/><path fill="#282828" d="m430.31 141.61 1.51-8.7 11.75 2 6.48-37.27-11.75-2 1.52-8.7 35.24 6.13-1.52 8.69-11.74-2-6.48 37.24 11.74 2-1.51 8.69Z" data-color="1"/><path fill="#00a39c" d="m467.46 97.91 24.3-24L475.87 50a22.68 22.68 0 0 1-7.69 8.09l16.45 16.1q-7.63 8.66-15.16 17.32Z" data-color="2"/></svg>